<svg xmlns="http://www.w3.org/2000/svg" width="54.602" height="44.146" viewBox="0 0 54.602 44.146">
  <g id="logo" transform="translate(0 152)">
    <rect id="rectangle" width="24.009" height="30.592" transform="translate(12.779 -147.74)" fill="#fff"/>
    <path id="Path_530" data-name="Path 530" d="M13.068-76H0v5.574c0,9.362,7.582,16.5,16.934,16.5h15.6a4.259,4.259,0,0,0,4.256-4.262v-5.352H29.535c-7.52,0-14.945-5.322-16.468-12.459" transform="translate(0 -53.927)" fill="#00ebff"/>
    <path id="Path_531" data-name="Path 531" d="M12.779-132.6c0-8.446,8.32-15.136,16.756-15.136h7.253A4.259,4.259,0,0,0,32.532-152h-15.6C7.582-152,0-144.864,0-135.5v5.574H13.068a12.817,12.817,0,0,1-.288-2.677" fill="#66fdda"/>
    <path id="Path_532" data-name="Path 532" d="M81.206-124a3.872,3.872,0,0,0-3.872,3.872,3.873,3.873,0,0,0,3.872,3.872,3.873,3.873,0,0,0,3.872-3.872A3.872,3.872,0,0,0,81.206-124" transform="translate(-54.873 -19.868)" fill="#404953"/>
    <path id="Path_533" data-name="Path 533" d="M82.495-120a1.163,1.163,0,0,0-1.162,1.161,1.164,1.164,0,0,0,1.162,1.163,1.164,1.164,0,0,0,1.162-1.163A1.163,1.163,0,0,0,82.495-120" transform="translate(-57.711 -22.706)" fill="#fff"/>
    <path id="Path_534" data-name="Path 534" d="M74.666-84.9H85.122V-88H74.666Z" transform="translate(-52.981 -45.412)" fill="#404953"/>
    <path id="Path_535" data-name="Path 535" d="M14.42-89.333a3.752,3.752,0,0,0-3.75,3.751,3.75,3.75,0,0,0,3.75,3.75,3.751,3.751,0,0,0,3.75-3.75,3.752,3.752,0,0,0-3.75-3.751" transform="translate(-7.592 -44.593)" fill="#ffc400"/>
    <path id="Path_536" data-name="Path 536" d="M139.05-131.92a18.472,18.472,0,0,0-12.383-5.413v19.246L139.05-105.7a18.537,18.537,0,0,0,0-26.217m-12.383,19.758v9.206a13.3,13.3,0,0,0,6.863-2.343Z" transform="translate(-89.878 -10.407)" fill="#404953"/>
    <path id="Path_537" data-name="Path 537" d="M44.288-76H44v12.614a5.2,5.2,0,0,0,5.219,5.2l18.79-.07v-5.284H60.756c-7.52,0-14.945-5.322-16.468-12.459" transform="translate(-31.221 -53.927)" fill="#3a4287"/>
  </g>
</svg>
